<svg width="104" height="104" viewBox="0 0 104 104" fill="none" xmlns="http://www.w3.org/2000/svg">
<path d="M97.6465 51.6238C97.6465 77.0289 77.0516 97.6238 51.6465 97.6238C26.2414 97.6238 5.64648 77.0289 5.64648 51.6238C5.64648 26.2187 26.2414 5.62378 51.6465 5.62378C77.0516 5.62378 97.6465 26.2187 97.6465 51.6238Z" fill="#1A1A1A"/>
<path opacity="0.4" d="M85.8854 55.8777C85.9362 55.3524 86.0685 54.8747 86.2824 54.4447C86.5023 54.0218 86.7857 53.6615 87.1327 53.3636C87.4856 53.0729 87.8843 52.8563 88.329 52.7137C88.7736 52.5711 89.252 52.5246 89.7642 52.5741C90.2765 52.6236 90.7371 52.761 91.1462 52.9861C91.5552 53.2113 91.9015 53.5033 92.185 53.8621C92.475 54.2215 92.6841 54.6295 92.8123 55.086C92.9464 55.5497 92.9881 56.0442 92.9373 56.5696C92.8859 57.1015 92.7466 57.5819 92.5196 58.0106C92.2984 58.4466 91.9953 58.8051 91.6102 59.086L91.0516 58.3857C91.3528 58.1497 91.5849 57.8739 91.748 57.5582C91.9177 57.2432 92.0206 56.8985 92.0568 56.5242C92.0943 56.1368 92.0635 55.7692 91.9646 55.4216C91.865 55.0806 91.7087 54.7771 91.4958 54.5113C91.2829 54.2455 91.0189 54.0277 90.7039 53.8581C90.3948 53.6956 90.0499 53.596 89.669 53.5591C89.2881 53.5223 88.9271 53.5537 88.5861 53.6533C88.251 53.7601 87.9535 53.9235 87.6936 54.1436C87.4337 54.3638 87.2222 54.6316 87.0591 54.9473C86.8953 55.2695 86.7948 55.6243 86.7573 56.0118C86.7211 56.3861 86.7528 56.7438 86.8524 57.0848C86.9585 57.4265 87.1401 57.7423 87.3971 58.0323L86.7146 58.6126C86.3905 58.2631 86.1584 57.8529 86.0183 57.382C85.8776 56.9176 85.8333 56.4162 85.8854 55.8777Z" fill="white"/>
<path opacity="0.4" d="M88.982 61.2326L87.9593 64.6453L87.1535 64.4039L88.1762 60.9911L88.982 61.2326ZM86.0082 60.4344L84.8492 64.3022L84.0244 64.055L85.4676 59.2393L92.1034 61.2278L90.7001 65.9109L89.8753 65.6637L90.9946 61.9287L86.0082 60.4344Z" fill="white"/>
<path opacity="0.4" d="M83.2382 65.941L89.3162 69.2646L88.9269 69.9767L81.7359 71.2667L81.94 70.8934L86.9327 73.6235L86.4579 74.4918L80.3798 71.1681L80.7692 70.4561L87.9602 69.1661L87.7561 69.5394L82.7634 66.8093L83.2382 65.941Z" fill="white"/>
<path opacity="0.4" d="M80.1209 71.5324L83.3609 78.4122L82.7257 79.1581L75.4112 77.0626L76.0849 76.2715L82.7529 78.2714L82.4963 78.5728L79.46 72.3084L80.1209 71.5324ZM80.5732 73.6724L81.0027 74.3891L78.4746 77.3577L77.6858 77.0629L80.5732 73.6724Z" fill="white"/>
<path opacity="0.4" d="M75.0006 80.2173L75.4982 80.8708L73.3803 82.4835L72.8826 81.83L75.0006 80.2173Z" fill="white"/>
<path opacity="0.4" d="M65.2508 83.3668C65.7297 83.145 66.2088 83.0177 66.6879 82.9848C67.1639 82.9607 67.6181 83.023 68.0505 83.1718C68.4797 83.3293 68.8682 83.5638 69.2161 83.8753C69.5639 84.1868 69.846 84.576 70.0622 85.043C70.2785 85.51 70.3929 85.9768 70.4055 86.4436C70.418 86.9104 70.3412 87.3567 70.1749 87.7827C70.0114 88.2147 69.7652 88.6014 69.4362 88.9428C69.1039 89.293 68.6983 89.579 68.2194 89.8008C67.7344 90.0253 67.2496 90.1481 66.7649 90.1689C66.2769 90.1986 65.8144 90.1183 65.3774 89.9281L65.6991 89.0921C66.055 89.2326 66.4103 89.2934 66.7651 89.2745C67.1227 89.2616 67.4721 89.1762 67.8133 89.0182C68.1666 88.8546 68.4681 88.6422 68.718 88.3811C68.9619 88.1227 69.1447 87.8345 69.2664 87.5164C69.3881 87.1983 69.4425 86.8605 69.4296 86.5029C69.4135 86.1541 69.325 85.8061 69.1642 85.4589C69.0034 85.1116 68.7938 84.8161 68.5355 84.5722C68.2739 84.337 67.9824 84.163 67.6611 84.0501C67.3398 83.9371 67.0017 83.8901 66.647 83.909C66.2862 83.9306 65.9292 84.0233 65.576 84.1868C65.2347 84.3449 64.9422 84.5531 64.6983 84.8114C64.4572 85.0758 64.2765 85.3921 64.1562 85.7604L63.3105 85.465C63.4482 85.0086 63.6847 84.601 64.0202 84.2421C64.3496 83.8859 64.7598 83.5941 65.2508 83.3668Z" fill="white"/>
<path opacity="0.4" d="M62.136 88.7417L58.6706 89.5687L58.4754 88.7504L61.9408 87.9235L62.136 88.7417ZM61.335 85.7687L57.4076 86.7059L57.2077 85.8684L62.0978 84.7015L63.7057 91.4398L58.9504 92.5745L58.7506 91.737L62.5432 90.832L61.335 85.7687Z" fill="white"/>
<path opacity="0.4" d="M55.2023 86.1193L55.4162 93.0435L54.6051 93.0685L49.8496 87.5223L50.2749 87.5092L50.4506 93.1969L49.4615 93.2274L49.2476 86.3033L50.0587 86.2782L54.8142 91.8244L54.3889 91.8376L54.2132 86.1499L55.2023 86.1193Z" fill="white"/>
<path opacity="0.4" d="M48.6641 86.2429L44.3323 92.4932L43.3685 92.317L41.5186 84.9365L42.5408 85.1234L44.1496 91.8964L43.7602 91.8252L47.6614 86.0595L48.6641 86.2429ZM47.0384 87.7062L46.6332 88.437L42.7976 87.7357L42.6577 86.9053L47.0384 87.7062Z" fill="white"/>
<path opacity="0.4" d="M38.5837 86.1573L38.2638 86.9138L35.8119 85.8768L36.1319 85.1203L38.5837 86.1573Z" fill="white"/>
<path opacity="0.4" d="M31.0172 79.2791C31.4474 79.5849 31.7957 79.9376 32.062 80.3374C32.3191 80.7387 32.4903 81.1639 32.5757 81.6131C32.6519 82.0639 32.6411 82.5176 32.5432 82.9742C32.4453 83.4307 32.2473 83.8688 31.9492 84.2882C31.651 84.7076 31.3025 85.0386 30.9034 85.2811C30.5044 85.5237 30.0787 85.6784 29.6264 85.7454C29.1702 85.8178 28.7123 85.7959 28.2526 85.6796C27.7837 85.5649 27.3342 85.3546 26.904 85.0488C26.4684 84.7392 26.1213 84.3792 25.8627 83.9687C25.5948 83.5598 25.435 83.1184 25.3833 82.6445L26.2688 82.509C26.3234 82.8877 26.4469 83.2265 26.6393 83.5251C26.8279 83.8292 27.0755 84.0901 27.382 84.308C27.6993 84.5335 28.0333 84.69 28.384 84.7773C28.7293 84.8609 29.0702 84.8766 29.4068 84.8244C29.7434 84.7723 30.0637 84.6519 30.3677 84.4633C30.6626 84.2762 30.9208 84.0268 31.1425 83.7149C31.3642 83.403 31.5169 83.0743 31.6004 82.729C31.6748 82.3853 31.6813 82.0459 31.6199 81.7108C31.5586 81.3758 31.4317 81.059 31.2392 80.7603C31.0414 80.4578 30.7839 80.1938 30.4666 79.9683C30.1601 79.7505 29.8342 79.5997 29.4888 79.5162C29.1397 79.438 28.7754 79.4381 28.3959 79.5164L28.2328 78.6356C28.6974 78.5286 29.1687 78.5318 29.6467 78.6449C30.1194 78.7543 30.5763 78.9657 31.0172 79.2791Z" fill="white"/>
<path opacity="0.4" d="M24.8183 79.2816L22.364 76.6991L22.9737 76.1196L25.428 78.7021L24.8183 79.2816ZM26.9879 77.0967L24.2063 74.17L24.8304 73.5768L28.2937 77.221L23.2723 81.9932L19.9044 78.4495L20.5285 77.8564L23.2146 80.6828L26.9879 77.0967Z" fill="white"/>
<path opacity="0.4" d="M23.6271 72.0085L17.7419 75.6627L17.3138 74.9733L19.7312 68.079L19.9556 68.4405L15.1213 71.4421L14.5993 70.6014L20.4845 66.9472L20.9126 67.6366L18.4952 74.5309L18.2708 74.1694L23.1051 71.1678L23.6271 72.0085Z" fill="white"/>
<path opacity="0.4" d="M20.3033 66.5477L12.7215 65.9588L12.3876 65.0377L17.8282 59.7185L18.1823 60.6954L13.1447 65.5001L13.0098 65.1279L19.956 65.5894L20.3033 66.5477ZM18.2199 65.8818L17.3845 65.9003L16.0559 62.2345L16.7024 61.6949L18.2199 65.8818Z" fill="white"/>
<path opacity="0.4" d="M15.2894 57.7646L14.4746 57.8687L14.137 55.2281L14.9518 55.1239L15.2894 57.7646Z" fill="white"/>
<path opacity="0.4" d="M17.4276 47.5945C17.3788 48.12 17.2483 48.5982 17.036 49.0291C16.8178 49.4528 16.5358 49.8142 16.19 50.1134C15.8382 50.4054 15.4403 50.6236 14.9962 50.7679C14.5521 50.9122 14.0739 50.9606 13.5615 50.913C13.049 50.8655 12.5879 50.7299 12.1779 50.5063C11.768 50.2827 11.4206 49.9921 11.1358 49.6344C10.8444 49.276 10.6337 48.8688 10.5037 48.4128C10.3678 47.9497 10.3243 47.4553 10.373 46.9298C10.4224 46.3976 10.5598 45.9168 10.7852 45.4871C11.0047 45.0503 11.3064 44.6907 11.6904 44.4083L12.2518 45.1064C11.9515 45.3436 11.7204 45.6203 11.5585 45.9366C11.3901 46.2522 11.2885 46.5973 11.2537 46.9717C11.2177 47.3593 11.2499 47.7267 11.3502 48.074C11.4511 48.4146 11.6085 48.7175 11.8224 48.9825C12.0364 49.2475 12.3012 49.4642 12.6168 49.6327C12.9265 49.7939 13.2719 49.8922 13.6529 49.9276C14.0339 49.963 14.3948 49.9302 14.7354 49.8293C15.0701 49.7212 15.367 49.5566 15.6261 49.3355C15.8851 49.1144 16.0956 48.8457 16.2575 48.5294C16.4199 48.2066 16.5192 47.8514 16.5551 47.4638C16.5899 47.0893 16.5568 46.7318 16.4559 46.3911C16.3485 46.0499 16.1657 45.7347 15.9076 45.4457L16.5878 44.8628C16.9133 45.2111 17.147 45.6204 17.2889 46.0908C17.4313 46.5545 17.4776 47.0558 17.4276 47.5945Z" fill="white"/>
<path opacity="0.4" d="M14.2998 42.2847L15.3095 38.8681L16.1162 39.1065L15.1065 42.5231L14.2998 42.2847ZM17.2766 43.0716L18.421 39.1994L19.2466 39.4435L17.8217 44.2647L11.1784 42.3012L12.564 37.6129L13.3897 37.8569L12.2845 41.5962L17.2766 43.0716Z" fill="white"/>
<path opacity="0.4" d="M20.031 37.5253L13.9408 34.2242L14.3275 33.5107L21.5137 32.1941L21.3109 32.5682L16.3082 29.8565L16.7798 28.9865L22.8701 32.2877L22.4833 33.0011L15.2971 34.3177L15.4999 33.9436L20.5026 36.6553L20.031 37.5253Z" fill="white"/>
<path opacity="0.4" d="M23.09 31.9628L19.8249 25.0948L20.4574 24.3466L27.7795 26.4155L27.1087 27.209L20.4334 25.2334L20.689 24.9311L23.7481 31.1844L23.09 31.9628ZM22.6299 29.8245L22.1978 29.1093L24.7151 26.1316L25.505 26.4235L22.6299 29.8245Z" fill="white"/>
<path opacity="0.4" d="M28.0776 23.3168L27.5776 22.6651L29.6897 21.0447L30.1897 21.6964L28.0776 23.3168Z" fill="white"/>
<path opacity="0.4" d="M37.7489 20.1201C37.2708 20.3436 36.7922 20.4728 36.3131 20.5074C35.8373 20.5333 35.3828 20.4727 34.9499 20.3255C34.5201 20.1696 34.1307 19.9366 33.7817 19.6263C33.4327 19.3161 33.1492 18.9279 32.9312 18.4618C32.7133 17.9956 32.5971 17.5292 32.5828 17.0625C32.5685 16.5957 32.6437 16.1491 32.8083 15.7225C32.9702 15.2899 33.215 14.9023 33.5428 14.5597C33.8737 14.2083 34.2783 13.9208 34.7564 13.6972C35.2405 13.4708 35.7248 13.3463 36.2095 13.3236C36.6973 13.2921 37.1601 13.3707 37.5979 13.5593L37.2793 14.3965C36.9229 14.2573 36.5673 14.1978 36.2126 14.218C35.8551 14.2322 35.506 14.319 35.1653 14.4783C34.8127 14.6432 34.512 14.8566 34.2631 15.1187C34.0201 15.378 33.8384 15.6669 33.7179 15.9854C33.5974 16.304 33.5442 16.642 33.5585 16.9995C33.5759 17.3483 33.6656 17.6959 33.8277 18.0426C33.9898 18.3892 34.2005 18.684 34.4597 18.9269C34.7222 19.1611 35.0143 19.334 35.336 19.4458C35.6577 19.5575 35.996 19.6033 36.3507 19.5831C36.7114 19.5601 37.068 19.4661 37.4206 19.3013C37.7613 19.142 38.0531 18.9327 38.296 18.6734C38.5361 18.4082 38.7156 18.0912 38.8345 17.7224L39.6813 18.0147C39.5454 18.4716 39.3103 18.8801 38.9762 19.2403C38.6481 19.5976 38.239 19.8909 37.7489 20.1201Z" fill="white"/>
<path opacity="0.4" d="M40.9768 14.6538L44.439 13.8137L44.6374 14.6312L41.1752 15.4713L40.9768 14.6538ZM41.7891 17.6238L45.713 16.6717L45.916 17.5084L41.0304 18.6938L39.3969 11.9618L44.1478 10.809L44.3509 11.6457L40.5616 12.5651L41.7891 17.6238Z" fill="white"/>
<path opacity="0.4" d="M47.9695 17.2227L47.7557 10.2986L48.5668 10.2735L53.3223 15.8197L52.8969 15.8329L52.7213 10.1452L53.7104 10.1146L53.9243 17.0388L53.1132 17.0638L48.3577 11.5176L48.783 11.5045L48.9587 17.1921L47.9695 17.2227Z" fill="white"/>
<path opacity="0.4" d="M54.4587 17.0703L58.7666 10.8035L59.731 10.976L61.6091 18.3493L60.5863 18.1664L58.9515 11.3996L59.3412 11.4693L55.4621 17.2498L54.4587 17.0703ZM56.0788 15.6008L56.4812 14.8685L60.3195 15.555L60.4626 16.3849L56.0788 15.6008Z" fill="white"/>
<path opacity="0.4" d="M64.5791 17.1168L64.8963 16.3591L67.352 17.3869L67.0348 18.1446L64.5791 17.1168Z" fill="white"/>
<path opacity="0.4" d="M72.186 23.9643C71.7546 23.6601 71.4051 23.3086 71.1373 22.9099C70.8788 22.5095 70.706 22.0849 70.6189 21.636C70.5411 21.1855 70.5503 20.7318 70.6465 20.2748C70.7427 19.8179 70.9391 19.3792 71.2357 18.9587C71.5323 18.5381 71.8797 18.2059 72.2778 17.9619C72.6759 17.7179 73.101 17.5616 73.5531 17.493C74.009 17.4189 74.467 17.4392 74.9271 17.5538C75.3964 17.6668 75.8467 17.8754 76.278 18.1796C76.7148 18.4876 77.0632 18.8464 77.3233 19.2559C77.5927 19.6639 77.7541 20.1047 77.8075 20.5783L76.9225 20.7171C76.8665 20.3385 76.7418 20.0003 76.5483 19.7023C76.3586 19.399 76.1101 19.1389 75.8027 18.9222C75.4846 18.6978 75.1501 18.5426 74.7991 18.4565C74.4534 18.3742 74.1124 18.3597 73.7761 18.4131C73.4397 18.4665 73.1198 18.5881 72.8165 18.7778C72.5223 18.9659 72.265 19.2163 72.0444 19.5291C71.8239 19.8418 71.6724 20.1709 71.5901 20.5165C71.517 20.8606 71.5118 21.2 71.5744 21.5348C71.6369 21.8696 71.765 22.186 71.9585 22.4839C72.1574 22.7857 72.4159 23.0487 72.734 23.2731C73.0413 23.4898 73.3678 23.6394 73.7134 23.7217C74.0629 23.7986 74.4272 23.7972 74.8063 23.7174L74.9727 24.5977C74.5085 24.7063 74.0372 24.7049 73.5587 24.5935C73.0856 24.4859 72.6281 24.2761 72.186 23.9643Z" fill="white"/>
<path opacity="0.4" d="M78.3275 23.8732L80.7912 26.4467L80.1835 27.0284L77.7199 24.4549L78.3275 23.8732ZM76.1658 26.0659L78.958 28.9825L78.3361 29.5779L74.8596 25.9464L79.8636 21.1559L83.2443 24.6873L82.6224 25.2827L79.926 22.4662L76.1658 26.0659Z" fill="white"/>
<path opacity="0.4" d="M79.5493 31.1018L85.4211 27.426L85.8517 28.1139L83.4597 35.017L83.2339 34.6563L88.0572 31.637L88.5823 32.4758L82.7105 36.1515L82.2799 35.4637L84.6719 28.5605L84.8977 28.9212L80.0744 31.9406L79.5493 31.1018Z" fill="white"/>
<path opacity="0.4" d="M82.9425 36.5977L90.5265 37.1582L90.8638 38.0781L85.4432 43.4176L85.0855 42.442L90.105 37.6185L90.2413 37.9901L83.2934 37.5548L82.9425 36.5977ZM85.0284 37.2559L85.8637 37.2342L87.2061 40.895L86.5616 41.437L85.0284 37.2559Z" fill="white"/>
<path opacity="0.4" d="M88.0134 45.4207L88.8277 45.3134L89.1755 47.9527L88.3611 48.06L88.0134 45.4207Z" fill="white"/>
</svg>
