<svg width="161" height="161" viewBox="0 0 161 161" fill="none" xmlns="http://www.w3.org/2000/svg">
<path d="M155.5 80.5C155.5 121.921 121.921 155.5 80.5 155.5C39.0786 155.5 5.5 121.921 5.5 80.5C5.5 39.0786 39.0786 5.5 80.5 5.5C121.921 5.5 155.5 39.0786 155.5 80.5Z" fill="black" stroke="#404040"/>
<path opacity="0.4" d="M142.418 83.9538C142.449 83.3405 142.609 82.7965 142.899 82.3219C143.188 81.8473 143.57 81.4821 144.044 81.2264C144.525 80.971 145.054 80.8579 145.633 80.8869C146.225 80.9167 146.741 81.0823 147.18 81.3839C147.626 81.6858 147.969 82.0873 148.21 82.5885C148.45 83.0897 148.555 83.647 148.524 84.2604C148.499 84.7692 148.399 85.2149 148.226 85.5976C148.053 85.9802 147.803 86.2995 147.476 86.5556L146.85 85.8743C147.105 85.6635 147.295 85.4215 147.421 85.1483C147.553 84.8755 147.628 84.5753 147.644 84.2477C147.666 83.8225 147.591 83.4344 147.42 83.0834C147.255 82.7398 147.014 82.4621 146.696 82.2505C146.378 82.0459 146.007 81.9329 145.581 81.9115C145.17 81.8909 144.793 81.9663 144.449 82.1377C144.111 82.3164 143.84 82.5683 143.635 82.8934C143.43 83.2255 143.316 83.6041 143.295 84.0293C143.279 84.3569 143.323 84.6631 143.427 84.9478C143.532 85.2326 143.7 85.4926 143.933 85.7279L143.242 86.343C142.942 86.0554 142.722 85.709 142.581 85.3036C142.447 84.9056 142.393 84.4557 142.418 83.9538Z" fill="white"/>
<path opacity="0.4" d="M145.473 89.0275L145.004 92.1223L144.187 91.9986L144.655 88.9038L145.473 89.0275ZM142.891 88.8062L142.376 92.2115L141.537 92.0847L142.205 87.6754L148.084 88.565L147.434 92.8605L146.606 92.7352L147.104 89.4437L142.891 88.8062Z" fill="white"/>
<path opacity="0.4" d="M141.216 93.6666L146.966 95.1783L146.753 95.9882L141.246 98.4913L141.345 98.1167L145.88 99.309L145.622 100.291L139.872 98.7794L140.084 97.9695L145.594 95.4562L145.493 95.841L140.957 94.6487L141.216 93.6666Z" fill="white"/>
<path opacity="0.4" d="M139.569 99.8035L144.128 104.492L143.764 105.429L137.232 105.825L137.604 104.868L143.509 104.611L143.384 104.933L139.21 100.731L139.569 99.8035ZM140.436 101.476L141.089 102.022L139.907 105.066L139.057 105.028L140.436 101.476Z" fill="white"/>
<path opacity="0.4" d="M137.775 110.119L138.539 110.533L137.197 113.009L136.433 112.595L137.775 110.119Z" fill="white"/>
<path opacity="0.4" d="M130.601 116.896C130.959 116.396 131.388 116.025 131.888 115.783C132.388 115.54 132.906 115.439 133.443 115.48C133.986 115.526 134.493 115.717 134.964 116.054C135.446 116.4 135.79 116.818 135.996 117.309C136.208 117.804 136.28 118.328 136.211 118.879C136.142 119.431 135.929 119.956 135.571 120.456C135.274 120.87 134.95 121.191 134.597 121.419C134.245 121.648 133.862 121.781 133.448 121.819L133.29 120.908C133.619 120.868 133.91 120.768 134.163 120.606C134.422 120.448 134.647 120.236 134.838 119.969C135.086 119.623 135.233 119.256 135.279 118.868C135.326 118.49 135.274 118.126 135.121 117.777C134.964 117.432 134.712 117.136 134.366 116.888C134.031 116.649 133.673 116.508 133.291 116.466C132.911 116.434 132.546 116.499 132.198 116.662C131.846 116.83 131.546 117.087 131.298 117.433C131.107 117.7 130.978 117.981 130.912 118.277C130.846 118.573 130.847 118.883 130.916 119.207L130.001 119.351C129.905 118.946 129.907 118.536 130.008 118.119C130.111 117.712 130.308 117.304 130.601 116.896Z" fill="white"/>
<path opacity="0.4" d="M130.466 122.752L128.403 125.105L127.781 124.56L129.845 122.207L130.466 122.752ZM128.412 121.173L126.141 123.762L125.504 123.203L128.444 119.851L132.914 123.771L130.05 127.037L129.42 126.485L131.615 123.982L128.412 121.173Z" fill="white"/>
<path opacity="0.4" d="M124.379 124.353L128.412 128.722L127.796 129.29L121.808 128.435L122.092 128.173L125.273 131.619L124.527 132.307L120.494 127.938L121.11 127.37L127.106 128.218L126.814 128.487L123.633 125.041L124.379 124.353Z" fill="white"/>
<path opacity="0.4" d="M119.659 128.651L120.979 135.056L120.168 135.65L114.449 132.47L115.277 131.863L120.393 134.823L120.114 135.028L118.857 129.239L119.659 128.651ZM119.49 130.528L119.747 131.339L117.112 133.269L116.416 132.78L119.49 130.528Z" fill="white"/>
<path opacity="0.4" d="M112.604 136.374L113.026 137.133L110.565 138.502L110.143 137.743L112.604 136.374Z" fill="white"/>
<path opacity="0.4" d="M102.886 138.237C103.456 138.009 104.017 137.926 104.569 137.991C105.121 138.055 105.613 138.249 106.043 138.573C106.476 138.903 106.801 139.336 107.016 139.874C107.237 140.425 107.303 140.962 107.212 141.487C107.125 142.019 106.904 142.498 106.549 142.926C106.194 143.354 105.732 143.683 105.162 143.911C104.689 144.101 104.243 144.197 103.823 144.2C103.403 144.203 103.008 144.11 102.639 143.92L102.996 143.066C103.294 143.209 103.593 143.281 103.894 143.281C104.197 143.287 104.501 143.229 104.805 143.107C105.201 142.948 105.522 142.718 105.769 142.416C106.012 142.123 106.164 141.788 106.223 141.41C106.276 141.036 106.223 140.651 106.064 140.256C105.911 139.874 105.685 139.562 105.385 139.322C105.082 139.09 104.739 138.949 104.358 138.899C103.971 138.851 103.579 138.907 103.184 139.065C102.88 139.187 102.62 139.355 102.405 139.569C102.19 139.783 102.025 140.045 101.908 140.355L101.06 139.985C101.196 139.592 101.419 139.247 101.728 138.95C102.034 138.662 102.42 138.424 102.886 138.237Z" fill="white"/>
<path opacity="0.4" d="M99.6135 143.101L96.6052 143.965L96.3768 143.17L99.3851 142.306L99.6135 143.101ZM98.7385 140.662L95.4283 141.613L95.1942 140.798L99.4802 139.567L101.122 145.281L96.9469 146.481L96.7156 145.676L99.9151 144.757L98.7385 140.662Z" fill="white"/>
<path opacity="0.4" d="M93.6432 141.158L94.6677 147.015L93.8428 147.159L89.2709 143.198L89.6525 143.131L90.4605 147.751L89.4603 147.926L88.4358 142.069L89.2607 141.924L93.8429 145.884L93.451 145.952L92.6429 141.333L93.6432 141.158Z" fill="white"/>
<path opacity="0.4" d="M87.3629 142.214L85.0132 148.317L84.0101 148.379L80.9163 142.612L81.9402 142.549L84.6459 147.804L84.3011 147.826L86.3703 142.275L87.3629 142.214ZM86.2068 143.701L85.9848 144.523L82.7249 144.724L82.4036 143.936L86.2068 143.701Z" fill="white"/>
<path opacity="0.4" d="M76.9937 144.887L76.9367 145.754L74.1268 145.569L74.1837 144.702L76.9937 144.887Z" fill="white"/>
<path opacity="0.4" d="M67.8273 141.185C68.4302 141.302 68.946 141.538 69.3748 141.892C69.8037 142.245 70.1111 142.675 70.2971 143.18C70.4817 143.693 70.5187 144.233 70.408 144.802C70.2946 145.384 70.0576 145.871 69.6969 146.263C69.3348 146.662 68.8887 146.944 68.3585 147.111C67.8283 147.278 67.2618 147.303 66.659 147.186C66.1589 147.088 65.7317 146.927 65.3775 146.702C65.0232 146.476 64.7425 146.183 64.5354 145.823L65.2985 145.3C65.471 145.582 65.6836 145.805 65.9363 145.968C66.1876 146.138 66.4742 146.254 66.7962 146.317C67.2141 146.398 67.6088 146.379 67.9805 146.259C68.344 146.145 68.653 145.946 68.9075 145.661C69.1551 145.375 69.3196 145.023 69.401 144.606C69.4797 144.201 69.4586 143.817 69.3376 143.452C69.2085 143.093 68.9975 142.789 68.7047 142.54C68.4051 142.289 68.0463 142.123 67.6285 142.042C67.3065 141.979 66.9972 141.98 66.7005 142.043C66.4038 142.106 66.1225 142.236 65.8566 142.433L65.3456 141.662C65.6728 141.405 66.0469 141.237 66.4681 141.155C66.881 141.079 67.3341 141.089 67.8273 141.185Z" fill="white"/>
<path opacity="0.4" d="M62.4505 143.501L59.4522 142.602L59.6896 141.81L62.6879 142.708L62.4505 143.501ZM63.0323 140.976L59.7332 139.987L59.9766 139.175L64.2484 140.455L62.5416 146.151L58.3801 144.904L58.6205 144.101L61.8093 145.057L63.0323 140.976Z" fill="white"/>
<path opacity="0.4" d="M58.4822 138.636L56.1659 144.112L55.3946 143.786L53.7024 137.978L54.0591 138.129L52.2322 142.448L51.297 142.053L53.6133 136.576L54.3846 136.903L56.0864 142.715L55.72 142.56L57.547 138.24L58.4822 138.636Z" fill="white"/>
<path opacity="0.4" d="M52.6439 136.126L47.3601 139.979L46.4837 139.487L47.0115 132.964L47.9061 133.467L47.3293 139.349L47.028 139.18L51.7767 135.639L52.6439 136.126ZM50.8659 136.748L50.234 137.318L47.3858 135.72L47.543 134.883L50.8659 136.748Z" fill="white"/>
<path opacity="0.4" d="M42.7119 132.904L42.1956 133.603L39.9306 131.93L40.4468 131.231L42.7119 132.904Z" fill="white"/>
<path opacity="0.4" d="M36.9807 124.821C37.4243 125.246 37.7309 125.723 37.9004 126.252C38.0699 126.782 38.0962 127.309 37.9793 127.835C37.8576 128.366 37.5965 128.841 37.1959 129.259C36.7857 129.687 36.3229 129.969 35.8076 130.104C35.2874 130.243 34.7592 130.24 34.2229 130.094C33.6866 129.948 33.1967 129.662 32.7531 129.237C32.385 128.885 32.113 128.518 31.9368 128.137C31.7607 127.756 31.6829 127.358 31.7035 126.943L32.6284 126.915C32.6208 127.246 32.6792 127.548 32.8036 127.822C32.9232 128.101 33.1015 128.354 33.3385 128.58C33.646 128.875 33.9884 129.072 34.3657 129.173C34.7332 129.273 35.1009 129.273 35.4689 129.171C35.8318 129.064 36.1605 128.857 36.4549 128.55C36.7396 128.252 36.9297 127.917 37.0253 127.545C37.1109 127.173 37.0979 126.803 36.9863 126.435C36.8695 126.063 36.6574 125.729 36.3499 125.435C36.113 125.208 35.8527 125.041 35.569 124.934C35.2853 124.826 34.9783 124.784 34.6481 124.806L34.6353 123.88C35.0491 123.842 35.4552 123.902 35.8535 124.061C36.242 124.22 36.6177 124.474 36.9807 124.821Z" fill="white"/>
<path opacity="0.4" d="M31.2075 123.877L29.1694 121.501L29.7971 120.962L31.8351 123.338L31.2075 123.877ZM33.0608 122.066L30.8183 119.452L31.4619 118.9L34.3656 122.284L29.8527 126.156L27.024 122.859L27.6596 122.313L29.8272 124.84L33.0608 122.066Z" fill="white"/>
<path opacity="0.4" d="M30.4849 117.637L25.5886 121.011L25.1134 120.321L26.8075 114.514L27.0272 114.833L23.1653 117.494L22.5892 116.658L27.4855 113.284L27.9607 113.974L26.2726 119.79L26.0469 119.462L29.9088 116.801L30.4849 117.637Z" fill="white"/>
<path opacity="0.4" d="M26.9438 112.44L20.4177 112.857L19.9421 111.971L23.8869 106.75L24.3724 107.654L20.7295 112.309L20.566 112.005L26.4731 111.564L26.9438 112.44ZM25.1093 112.012L24.2704 112.153L22.7246 109.276L23.3058 108.655L25.1093 112.012Z" fill="white"/>
<path opacity="0.4" d="M20.2922 104.393L19.4811 104.705L18.472 102.076L19.2832 101.764L20.2922 104.393Z" fill="white"/>
<path opacity="0.4" d="M19.8036 94.4723C19.9484 95.0691 19.9495 95.6362 19.807 96.1734C19.6645 96.7107 19.4023 97.1693 19.0205 97.5492C18.632 97.9307 18.1562 98.1898 17.5933 98.3264C17.0168 98.4663 16.4753 98.4541 15.9686 98.2897C15.4552 98.1271 15.012 97.8396 14.6391 97.4274C14.2661 97.0152 14.0073 96.5107 13.8625 95.9139C13.7423 95.4188 13.7108 94.9632 13.7678 94.5472C13.8249 94.1312 13.9739 93.754 14.2149 93.4154L15.0089 93.8906C14.8242 94.1652 14.7105 94.4514 14.6678 94.749C14.6183 95.0482 14.6322 95.3572 14.7096 95.676C14.81 96.0897 14.992 96.4405 15.2558 96.7284C15.5111 97.0112 15.8212 97.2088 16.186 97.3214C16.5492 97.4271 16.9377 97.4298 17.3514 97.3294C17.7515 97.2323 18.0922 97.0527 18.3733 96.7906C18.6459 96.5234 18.8343 96.2048 18.9385 95.8348C19.0409 95.4581 19.042 95.0628 18.9416 94.6491C18.8643 94.3304 18.735 94.0493 18.5539 93.806C18.3728 93.5627 18.1372 93.3613 17.8472 93.2019L18.335 92.4157C18.7044 92.6061 19.014 92.8757 19.2638 93.2244C19.5051 93.568 19.6851 93.984 19.8036 94.4723Z" fill="white"/>
<path opacity="0.4" d="M15.454 90.5803L15.0214 87.4803L15.8404 87.366L16.2731 90.466L15.454 90.5803ZM17.9917 90.057L17.5156 86.646L18.3554 86.5288L18.9719 90.9455L13.083 91.7674L12.4824 87.4648L13.3119 87.349L13.772 90.646L17.9917 90.057Z" fill="white"/>
<path opacity="0.4" d="M18.2194 85.0343L12.277 85.2408L12.2479 84.4038L16.8022 80.4223L16.8156 80.8094L12.1287 80.9723L12.0934 79.9574L18.0358 79.751L18.0649 80.5879L13.511 84.5799L13.4972 84.1823L18.1841 84.0195L18.2194 85.0343Z" fill="white"/>
<path opacity="0.4" d="M18.037 78.3813L12.3307 75.1874L12.412 74.1857L18.5596 71.9435L18.4766 72.9661L12.8899 74.8967L12.9179 74.5524L18.1175 77.3901L18.037 78.3813ZM16.7292 77.0253L15.9478 76.6888L16.2121 73.4334L17.0375 73.2274L16.7292 77.0253Z" fill="white"/>
<path opacity="0.4" d="M16.8154 67.9554L15.9652 67.7763L16.5455 65.0208L17.3957 65.1998L16.8154 67.9554Z" fill="white"/>
<path opacity="0.4" d="M21.7115 59.5461C21.5109 60.1266 21.2056 60.6044 20.7954 60.9795C20.3852 61.3547 19.9168 61.5989 19.3903 61.7124C18.8572 61.8235 18.3169 61.7845 17.7694 61.5954C17.2087 61.4017 16.7596 61.0988 16.422 60.6868C16.0778 60.2726 15.8601 59.7913 15.769 59.2429C15.6779 58.6946 15.7326 58.1302 15.9332 57.5497C16.0995 57.0682 16.3191 56.6678 16.5918 56.3485C16.8646 56.0293 17.1938 55.7923 17.5795 55.6376L17.9909 56.4664C17.6871 56.5977 17.4369 56.7771 17.2402 57.0045C17.0369 57.2296 16.8817 57.4971 16.7745 57.8072C16.6355 58.2095 16.5992 58.6031 16.6657 58.9879C16.7278 59.3637 16.8819 59.6976 17.1281 59.9894C17.3766 60.2746 17.7021 60.4867 18.1044 60.6257C18.4936 60.7602 18.8773 60.7931 19.2554 60.7244C19.6293 60.6468 19.9599 60.4804 20.2474 60.2253C20.5372 59.9637 20.7516 59.6316 20.8906 59.2293C20.9977 58.9192 21.0408 58.6129 21.0198 58.3103C20.9988 58.0077 20.9094 57.711 20.7514 57.4202L21.5867 57.0221C21.7947 57.3819 21.9096 57.776 21.9314 58.2044C21.9489 58.6239 21.8756 59.0712 21.7115 59.5461Z" fill="white"/>
<path opacity="0.4" d="M20.1888 53.8193L21.5041 50.9791L22.2545 51.3266L20.9392 54.1669L20.1888 53.8193ZM22.6055 54.7539L24.0527 51.6287L24.8222 51.985L22.9482 56.0317L17.5527 53.533L19.3782 49.5909L20.1382 49.9428L18.7393 52.9635L22.6055 54.7539Z" fill="white"/>
<path opacity="0.4" d="M25.5968 50.4988L20.4998 47.4369L20.931 46.719L26.9188 45.8586L26.7194 46.1907L22.6991 43.7757L23.222 42.9052L28.3191 45.9671L27.8878 46.685L21.8947 47.5544L22.0995 47.2134L26.1197 49.6284L25.5968 50.4988Z" fill="white"/>
<path opacity="0.4" d="M28.9606 44.9671L25.8998 39.1882L26.5116 38.3909L32.8922 39.8426L32.2677 40.6565L26.5273 39.2474L26.7376 38.9734L29.5659 44.1781L28.9606 44.9671ZM28.5976 43.1185L28.1238 42.4119L30.1119 39.8206L30.9171 40.0953L28.5976 43.1185Z" fill="white"/>
<path opacity="0.4" d="M33.4556 35.6848L32.8367 35.0749L34.8134 33.0693L35.4322 33.6792L33.4556 35.6848Z" fill="white"/>
<path opacity="0.4" d="M42.094 31.2534C41.6123 31.6343 41.0975 31.8722 40.5499 31.9672C40.0022 32.0621 39.476 32.0155 38.9713 31.8274C38.4624 31.6337 38.0282 31.3097 37.669 30.8553C37.3011 30.39 37.0859 29.8928 37.0235 29.3639C36.9569 28.8294 37.0329 28.3067 37.2516 27.7957C37.4703 27.2846 37.8206 26.8387 38.3023 26.4578C38.702 26.1418 39.1027 25.9228 39.5045 25.8009C39.9063 25.6789 40.3113 25.6567 40.7196 25.7343L40.6195 26.6541C40.2928 26.601 39.9854 26.6173 39.6971 26.7028C39.4046 26.7829 39.1296 26.9246 38.8723 27.1281C38.5384 27.3921 38.2957 27.7041 38.1444 28.064C37.9941 28.4141 37.9441 28.7784 37.9942 29.1569C38.0499 29.531 38.2097 29.8851 38.4737 30.219C38.7291 30.542 39.0346 30.7765 39.3901 30.9224C39.7469 31.0585 40.115 31.0966 40.4947 31.0366C40.8798 30.9723 41.2393 30.8082 41.5733 30.5441C41.8306 30.3407 42.0319 30.1059 42.1773 29.8397C42.3227 29.5735 42.4072 29.2753 42.4309 28.9452L43.3491 29.06C43.3304 29.4751 43.2148 29.869 43.0023 30.2417C42.7909 30.6045 42.4882 30.9417 42.094 31.2534Z" fill="white"/>
<path opacity="0.4" d="M43.7834 25.6718L46.418 23.9819L46.8645 24.678L44.2299 26.3679L43.7834 25.6718ZM45.3204 27.7578L48.2194 25.8983L48.6772 26.612L44.9235 29.0198L41.7132 24.0149L45.3699 21.6693L45.8221 22.3742L43.0201 24.1716L45.3204 27.7578Z" fill="white"/>
<path opacity="0.4" d="M50.1257 25.7589L47.4679 20.44L48.217 20.0657L53.7313 22.5529L53.3848 22.7261L51.2885 18.5309L52.1968 18.077L54.8547 23.3959L54.1055 23.7702L48.5819 21.2876L48.9377 21.1098L51.034 25.305L50.1257 25.7589Z" fill="white"/>
<path opacity="0.4" d="M56.0993 22.8201L56.6322 16.3025L57.577 15.9601L62.1718 20.6193L61.2073 20.9689L57.1291 16.6903L57.4538 16.5726L57.0343 22.4812L56.0993 22.8201ZM56.789 21.067L56.7702 20.2164L59.8409 19.1035L60.3714 19.7686L56.789 21.067Z" fill="white"/>
<path opacity="0.4" d="M64.8034 17.4413L64.6114 16.5939L67.3578 15.9716L67.5498 16.819L64.8034 17.4413Z" fill="white"/>
<path opacity="0.4" d="M74.6802 18.3494C74.0689 18.4085 73.5073 18.3296 72.9956 18.1126C72.4838 17.8957 72.0668 17.5714 71.7446 17.1398C71.4218 16.7013 71.2324 16.1937 71.1767 15.6172C71.1196 15.0267 71.2081 14.4923 71.4423 14.0139C71.6759 13.5286 72.023 13.1304 72.4837 12.8194C72.9445 12.5084 73.4805 12.3234 74.0918 12.2643C74.5988 12.2152 75.0543 12.2483 75.4581 12.3635C75.8618 12.4787 76.2143 12.6795 76.5154 12.9659L75.9329 13.6848C75.6871 13.4632 75.4199 13.3102 75.1313 13.226C74.842 13.1348 74.5341 13.1049 74.2076 13.1365C73.7839 13.1775 73.4109 13.3082 73.0887 13.5287C72.7727 13.7415 72.5333 14.0206 72.3703 14.3659C72.2144 14.7105 72.1568 15.0947 72.1978 15.5184C72.2375 15.9283 72.3672 16.2908 72.587 16.6061C72.813 16.9138 73.1019 17.1453 73.4534 17.3006C73.8119 17.4552 74.2031 17.5121 74.6268 17.4711C74.9533 17.4395 75.2497 17.3513 75.5162 17.2063C75.7826 17.0613 76.0152 16.8566 76.214 16.5919L76.9235 17.1859C76.6828 17.5247 76.3722 17.7931 75.9917 17.9912C75.6175 18.1816 75.1803 18.301 74.6802 18.3494Z" fill="white"/>
<path opacity="0.4" d="M79.2068 14.5735L82.3368 14.5856L82.3336 15.4126L79.2036 15.4005L79.2068 14.5735ZM79.3643 17.1598L82.8083 17.1731L82.8051 18.0211L78.3456 18.0038L78.3685 12.0579L82.7129 12.0747L82.7096 12.9121L79.3807 12.8993L79.3643 17.1598Z" fill="white"/>
<path opacity="0.4" d="M84.8021 18.1153L85.4654 12.2064L86.2976 12.2998L89.5715 17.3866L89.1866 17.3434L89.7098 12.6829L90.7189 12.7961L90.0556 18.705L89.2233 18.6116L85.939 13.5237L86.3343 13.568L85.8112 18.2286L84.8021 18.1153Z" fill="white"/>
<path opacity="0.4" d="M90.8924 18.8079L94.8608 13.6103L95.841 13.8324L97.1917 20.2352L96.1912 20.0085L95.0696 14.205L95.4065 14.2814L91.8623 19.0276L90.8924 18.8079ZM92.4197 17.7049L92.8632 16.9789L96.0486 17.7006L96.1359 18.5469L92.4197 17.7049Z" fill="white"/>
<path opacity="0.4" d="M101.581 19.1273L101.88 18.3116L104.524 19.281L104.225 20.0968L101.581 19.1273Z" fill="white"/>
<path opacity="0.4" d="M109.364 25.2635C108.818 24.9809 108.39 24.6095 108.078 24.1492C107.767 23.6889 107.593 23.1901 107.557 22.6527C107.524 22.1091 107.641 21.5802 107.908 21.0659C108.181 20.5393 108.546 20.1388 109.002 19.8645C109.462 19.5841 109.97 19.4385 110.526 19.4279C111.081 19.4172 111.632 19.5532 112.177 19.8359C112.629 20.0703 112.994 20.3456 113.27 20.6618C113.546 20.978 113.733 21.3381 113.83 21.7422L112.95 22.029C112.865 21.7094 112.723 21.4357 112.527 21.2081C112.334 20.9743 112.091 20.782 111.8 20.631C111.422 20.4351 111.038 20.3421 110.648 20.352C110.267 20.359 109.914 20.4631 109.59 20.6644C109.272 20.8689 109.015 21.1601 108.819 21.538C108.629 21.9036 108.541 22.2784 108.554 22.6626C108.577 23.0437 108.693 23.395 108.904 23.7164C109.121 24.0411 109.418 24.3014 109.796 24.4973C110.087 24.6482 110.384 24.7353 110.687 24.7584C110.989 24.7816 111.296 24.7361 111.606 24.622L111.879 25.5062C111.493 25.6598 111.086 25.7163 110.659 25.6757C110.242 25.6322 109.81 25.4948 109.364 25.2635Z" fill="white"/>
<path opacity="0.4" d="M115.186 24.5535L117.808 26.2627L117.356 26.9555L114.734 25.2463L115.186 24.5535ZM113.914 26.811L116.799 28.6917L116.336 29.4021L112.6 26.9669L115.847 21.9857L119.487 24.358L119.029 25.0596L116.241 23.2418L113.914 26.811Z" fill="white"/>
<path opacity="0.4" d="M117.328 30.1044L121.067 25.4807L121.718 26.0073L121.741 32.0565L121.439 31.813L124.388 28.1662L125.178 28.8046L121.439 33.4283L120.788 32.9017L120.757 26.8459L121.067 27.096L118.118 30.7428L117.328 30.1044Z" fill="white"/>
<path opacity="0.4" d="M122.346 34.1895L128.491 31.9542L129.196 32.6699L126.879 38.7897L126.159 38.059L128.346 32.5675L128.588 32.8136L123.044 34.8978L122.346 34.1895ZM124.226 34.0847L124.992 33.7127L127.284 36.0389L126.901 36.7986L124.226 34.0847Z" fill="white"/>
<path opacity="0.4" d="M131.184 40.2327L131.875 39.7063L133.581 41.9467L132.89 42.4731L131.184 40.2327Z" fill="white"/>
<path opacity="0.4" d="M134.383 49.4847C134.075 48.9536 133.912 48.4103 133.896 47.8547C133.88 47.299 134.001 46.7848 134.259 46.3121C134.524 45.8359 134.906 45.4523 135.407 45.1613C135.92 44.8634 136.443 44.7212 136.975 44.7347C137.514 44.7448 138.02 44.8944 138.495 45.1836C138.97 45.4729 139.361 45.883 139.67 46.4141C139.925 46.8546 140.085 47.2824 140.149 47.6975C140.212 48.1125 140.177 48.5166 140.042 48.9097L139.145 48.6797C139.244 48.3639 139.272 48.0573 139.229 47.7598C139.191 47.4588 139.09 47.1665 138.925 46.8829C138.711 46.5148 138.437 46.2302 138.102 46.0291C137.777 45.8306 137.424 45.7292 137.042 45.725C136.664 45.7268 136.29 45.8346 135.922 46.0484C135.566 46.2552 135.291 46.5242 135.096 46.8554C134.91 47.1892 134.82 47.5482 134.825 47.9325C134.834 48.3228 134.945 48.7021 135.159 49.0702C135.324 49.3538 135.528 49.5865 135.771 49.7683C136.013 49.9501 136.297 50.0762 136.62 50.1467L136.376 51.0391C135.967 50.9615 135.594 50.791 135.255 50.5277C134.926 50.2668 134.636 49.9192 134.383 49.4847Z" fill="white"/>
<path opacity="0.4" d="M139.695 52.0399L140.989 54.8899L140.236 55.2318L138.942 52.3818L139.695 52.0399ZM137.41 53.2615L138.834 56.3974L138.062 56.748L136.218 52.6875L141.632 50.2291L143.428 54.1847L142.666 54.531L141.289 51.4999L137.41 53.2615Z" fill="white"/>
<path opacity="0.4" d="M138.602 58.0937L144.243 56.2156L144.508 57.0102L141.265 62.1168L141.143 61.7493L145.592 60.268L145.913 61.2315L140.271 63.1095L140.007 62.3149L143.246 57.1984L143.372 57.5758L138.922 59.0571L138.602 58.0937Z" fill="white"/>
<path opacity="0.4" d="M140.598 64.1866L146.977 65.6246L147.184 66.608L141.929 70.5069L141.718 69.503L146.524 66.0624L146.595 66.4004L140.803 65.1597L140.598 64.1866ZM142.238 65.1143L143.083 65.2146L143.756 68.4106L143.023 68.843L142.238 65.1143Z" fill="white"/>
<path opacity="0.4" d="M144.743 73.8677L145.609 73.7974L145.836 76.6042L144.97 76.6745L144.743 73.8677Z" fill="white"/>
</svg>
