<svg width="15.000000" height="16.000000" viewBox="0 0 15 16" fill="none" xmlns="http://www.w3.org/2000/svg" xmlns:xlink="http://www.w3.org/1999/xlink">
	<desc>
			Created with Pixso.
	</desc>
	<defs>
		<clipPath id="clip8_1234">
			<rect id="66ed64864554a0aa0d4eadf2_icon-page.svg" rx="0.000000" width="14.000000" height="15.000000" transform="translate(0.500000 0.500000)" fill="white" fill-opacity="0"/>
		</clipPath>
		<clipPath id="clip8_1233">
			<rect id="66ed64864554a0aa0d4eadf2_icon-page.svg fill" rx="0.000000" width="14.000000" height="15.000000" transform="translate(0.500000 0.500000)" fill="white" fill-opacity="0"/>
		</clipPath>
		<clipPath id="clip8_1232">
			<rect id="66ed64864554a0aa0d4eadf2_icon-page.svg" rx="0.000000" width="14.000000" height="15.000000" transform="translate(0.500000 0.500000)" fill="white" fill-opacity="0"/>
		</clipPath>
	</defs>
	<g clip-path="url(#clip8_1232)">
		<g clip-path="url(#clip8_1233)">
			<g clip-path="url(#clip8_1234)">
				<path id="Vector" d="M13.11 1.92L12.17 1.45L11.24 1.92L10.3 1.45L9.37 1.92L8.43 1.45L7.5 1.92L6.56 1.45L5.63 1.92L4.22 1.45L4.22 8.94L10.77 8.94L10.77 12.91C10.77 13.82 11.74 14.55 12.64 14.55L12.99 14.55C13.9 14.55 14.51 13.82 14.51 12.91L14.51 1.45L13.11 1.92ZM7.98 7.53L7.96 6.6L12.63 6.6L12.64 7.53L7.98 7.53ZM6.11 5.19L6.09 4.26L12.63 4.26L12.64 5.19L6.11 5.19Z" fill="#FFFFFF" fill-opacity="1.000000" fill-rule="nonzero"/>
				<path id="Vector" d="M9.83 12.91L9.83 9.87L0.48 9.87L0.48 10.81C0.48 12.28 0.65 12.9 0.9 13.37C1.33 14.16 2.11 14.55 3.28 14.55L10.77 14.55C10.77 14.55 9.83 13.96 9.83 12.91Z" fill="#FFFFFF" fill-opacity="1.000000" fill-rule="nonzero"/>
			</g>
		</g>
	</g>
</svg>
