<svg width="11.916016" height="11.916992" viewBox="0 0 11.916 11.917" fill="none" xmlns="http://www.w3.org/2000/svg" xmlns:xlink="http://www.w3.org/1999/xlink">
	<desc>
			Created with Pixso.
	</desc>
	<defs/>
	<path id="Vector" d="M0 8.66L3.25 8.66L3.25 11.91L1.62 11.91C1.19 11.91 0.78 11.74 0.47 11.44C0.17 11.13 0 10.72 0 10.29L0 8.66ZM4.33 11.91L10.29 11.91C10.72 11.91 11.13 11.74 11.44 11.44C11.74 11.13 11.91 10.72 11.91 10.29L11.91 8.66L4.33 8.66L4.33 11.91ZM4.33 7.58L11.91 7.58L11.91 4.33L4.33 4.33L4.33 7.58ZM0 1.62L0 3.25L3.25 3.25L3.25 0L1.62 0C1.19 0 0.78 0.17 0.47 0.47C0.17 0.78 0 1.19 0 1.62ZM0 7.58L3.25 7.58L3.25 4.33L0 4.33L0 7.58ZM10.29 0L4.33 0L4.33 3.25L11.91 3.25L11.91 1.62C11.91 1.19 11.74 0.78 11.44 0.47C11.13 0.17 10.72 0 10.29 0Z" fill="#FFFFFF" fill-opacity="1.000000" fill-rule="nonzero"/>
</svg>
