<svg width="13.000000" height="14.000000" viewBox="0 0 13 14" fill="none" xmlns="http://www.w3.org/2000/svg" xmlns:xlink="http://www.w3.org/1999/xlink">
	<desc>
			Created with Pixso.
	</desc>
	<defs>
		<clipPath id="clip8_1243">
			<rect id="66ed648637b5148cd4fb9a4d_icon-play.svg" rx="0.000000" width="12.000000" height="13.000000" transform="translate(0.500000 0.500000)" fill="white" fill-opacity="0"/>
		</clipPath>
		<clipPath id="clip8_1242">
			<rect id="66ed648637b5148cd4fb9a4d_icon-play.svg fill" rx="0.000000" width="12.000000" height="13.000000" transform="translate(0.500000 0.500000)" fill="white" fill-opacity="0"/>
		</clipPath>
	</defs>
	<g clip-path="url(#clip8_1242)">
		<g clip-path="url(#clip8_1243)">
			<mask id="mask8_1245" mask-type="alpha" maskUnits="userSpaceOnUse" x="0.000000" y="0.500000" width="13.000000" height="13.000000">
				<path id="Vector" d="M0 0.5L13 0.5L13 13.5L0 13.5L0 0.5Z" fill="#000000" fill-opacity="1.000000" fill-rule="evenodd"/>
			</mask>
			<g mask="url(#mask8_1245)">
				<path id="Vector" d="M6.5 0.5C2.91 0.5 0 3.41 0 7C0 10.58 2.91 13.5 6.5 13.5C10.08 13.5 13 10.58 13 7C12.99 3.41 10.08 0.5 6.5 0.5ZM9.23 7.2C9.19 7.29 9.11 7.37 9.02 7.41L9.02 7.41L5.31 9.27C5.08 9.38 4.8 9.29 4.69 9.06C4.66 9 4.64 8.92 4.64 8.85L4.64 5.14C4.64 4.88 4.84 4.67 5.1 4.67C5.17 4.67 5.25 4.69 5.31 4.72L9.02 6.58C9.25 6.69 9.35 6.97 9.23 7.2Z" fill="#FFFFFF" fill-opacity="1.000000" fill-rule="nonzero"/>
			</g>
		</g>
	</g>
</svg>
