<svg width="36.816406" height="17.373047" viewBox="0 0 36.8164 17.373" fill="none" xmlns="http://www.w3.org/2000/svg" xmlns:xlink="http://www.w3.org/1999/xlink">
	<desc>
			Created with Pixso.
	</desc>
	<defs/>
	<path id="НО" d="M23.41 16.49Q25.31 17.37 27.62 17.37Q29.96 17.37 31.87 16.47Q32.1 16.36 32.32 16.24Q33.58 15.56 34.51 14.58Q35.13 13.92 35.61 13.13Q35.94 12.58 36.19 11.99Q36.81 10.46 36.81 8.68Q36.81 6.92 36.2 5.4Q35.95 4.8 35.61 4.23Q35.13 3.43 34.49 2.77Q33.57 1.79 32.32 1.13Q32.08 1 31.84 0.88Q29.94 -0.01 27.62 -0.01Q25.33 -0.01 23.44 0.86Q23.17 0.98 22.9 1.13Q21.63 1.81 20.69 2.8Q20.08 3.45 19.61 4.23Q19.3 4.76 19.07 5.32Q18.43 6.87 18.43 8.68Q18.43 10.51 19.08 12.07Q19.31 12.62 19.61 13.13Q20.08 13.9 20.68 14.55Q21.62 15.55 22.9 16.24Q23.15 16.38 23.41 16.49ZM15.41 17.08L15.41 0.28L11.51 0.28L11.51 6.9L3.89 6.9L3.89 0.28L0 0.28L0 17.08L3.89 17.08L3.89 10.19L11.51 10.19L11.51 17.08L15.41 17.08ZM29.71 13.66Q28.75 14.06 27.62 14.06Q26.47 14.06 25.49 13.65Q25.21 13.53 24.94 13.37Q24.38 13.06 23.94 12.63Q23.42 12.12 23.05 11.47Q22.99 11.35 22.93 11.24Q22.36 10.1 22.36 8.68Q22.36 7.28 22.91 6.16Q22.98 6.02 23.05 5.9Q23.43 5.21 23.97 4.7Q24.4 4.29 24.94 3.99Q25.21 3.84 25.49 3.72Q26.47 3.31 27.62 3.31Q28.75 3.31 29.71 3.7Q30.02 3.83 30.31 3.99Q30.84 4.29 31.27 4.7Q31.81 5.21 32.19 5.9Q32.27 6.02 32.33 6.16Q32.88 7.28 32.88 8.68Q32.88 10.1 32.32 11.24Q32.26 11.35 32.19 11.47Q31.83 12.12 31.31 12.63Q30.86 13.06 30.31 13.37Q30.02 13.54 29.71 13.66Z" fill="#FFFFFF" fill-opacity="1.000000" fill-rule="evenodd"/>
</svg>
