<svg width="26.406250" height="22.882812" viewBox="0 0 26.4062 22.8828" fill="none" xmlns="http://www.w3.org/2000/svg" xmlns:xlink="http://www.w3.org/1999/xlink">
	<desc>
			Created with Pixso.
	</desc>
	<defs/>
	<path id="“" d="M10 14.11C9.4 13.23 8.56 12.59 7.46 12.21L10.51 9.91e-5L5.34 9.91e-5L1.48 11.47Q0.58 13.77 0.28 14.97C0.09 15.76 0 16.53 0 17.29Q0 18.75 0.58 19.91Q0.95 20.65 1.56 21.28C2.6 22.34 3.91 22.88 5.5 22.88Q6.84 22.88 7.92 22.35Q8.7 21.97 9.34 21.32Q9.84 20.82 10.18 20.23Q10.91 18.97 10.91 17.29Q10.91 15.5 10.09 14.24Q10.05 14.17 10 14.11ZM25.5 14.11C24.9 13.23 24.05 12.59 22.96 12.21L26 9.91e-5L20.84 9.91e-5L16.97 11.47Q16.07 13.77 15.77 14.97C15.58 15.76 15.49 16.53 15.49 17.29Q15.49 18.75 16.07 19.91Q16.44 20.65 17.05 21.28C18.09 22.34 19.41 22.88 21 22.88Q22.33 22.88 23.41 22.35Q24.19 21.97 24.84 21.32Q25.33 20.82 25.67 20.23Q26.4 18.97 26.4 17.29Q26.4 15.5 25.59 14.24Q25.54 14.17 25.5 14.11Z" fill="#FFFFFF" fill-opacity="1.000000" fill-rule="evenodd"/>
</svg>
