<svg width="16" height="16" viewBox="0 0 16 16" fill="none" xmlns="http://www.w3.org/2000/svg">
<circle cx="8" cy="8" r="8" fill="black"/>
<path d="M9.65674 6.737C9.65674 8.417 13.0447 7.157 13.0447 9.446C13.0447 10.181 12.5197 11.119 10.9937 11.119C9.63574 11.119 8.94274 10.146 8.94274 9.32H9.51674C9.51674 9.915 10.0837 10.545 11.0497 10.545C12.0927 10.545 12.4777 9.971 12.4777 9.376C12.4777 7.78 9.08274 9.033 9.08274 6.716C9.08274 5.883 9.76174 5.225 10.9657 5.225C12.0927 5.225 12.7927 5.918 12.7927 6.891H12.2187C12.2187 6.268 11.7497 5.799 10.9657 5.799C10.1957 5.799 9.65674 6.121 9.65674 6.737Z" fill="#FF0144"/>
<path d="M4.65674 6.737C4.65674 8.417 8.04474 7.157 8.04474 9.446C8.04474 10.181 7.51974 11.119 5.99374 11.119C4.63574 11.119 3.94274 10.146 3.94274 9.32H4.51674C4.51674 9.915 5.08374 10.545 6.04974 10.545C7.09274 10.545 7.47774 9.971 7.47774 9.376C7.47774 7.78 4.08274 9.033 4.08274 6.716C4.08274 5.883 4.76174 5.225 5.96574 5.225C7.09274 5.225 7.79274 5.918 7.79274 6.891H7.21874C7.21874 6.268 6.74974 5.799 5.96574 5.799C5.19574 5.799 4.65674 6.121 4.65674 6.737Z" fill="#FF0144"/>
</svg>
