<svg width="48.000000" height="48.000000" viewBox="0 0 48 48" fill="none" xmlns="http://www.w3.org/2000/svg" xmlns:xlink="http://www.w3.org/1999/xlink">
	<desc>
			Created with Pixso.
	</desc>
	<defs>
		<clipPath id="clip8_1289">
			<rect id="66ecc65492694f32cf78496d_cross.svg" rx="0.000000" width="19.000000" height="19.000000" transform="translate(14.500000 14.500000)" fill="white" fill-opacity="0"/>
		</clipPath>
		<clipPath id="clip8_1288">
			<rect id="66ecc65492694f32cf78496d_cross.svg fill" rx="0.000000" width="19.000000" height="19.000000" transform="translate(14.500000 14.500000)" fill="white" fill-opacity="0"/>
		</clipPath>
		<clipPath id="clip8_1287">
			<rect id="66ecc65492694f32cf78496d_cross.svg" rx="0.000000" width="19.000000" height="19.000000" transform="translate(14.500000 14.500000)" fill="white" fill-opacity="0"/>
		</clipPath>
		<linearGradient x1="-2.232710" y1="26.757160" x2="50.232712" y2="21.242847" id="paint_linear_8_1286_0" gradientUnits="userSpaceOnUse">
			<stop stop-color="#69001C"/>
			<stop offset="1.000000" stop-color="#FF215C"/>
		</linearGradient>
	</defs>
	<rect id="Background" rx="23.500000" width="47.000000" height="47.000000" transform="translate(0.500000 0.500000)" fill="url(#paint_linear_8_1286_0)" fill-opacity="1.000000"/>
	<g clip-path="url(#clip8_1287)">
		<g clip-path="url(#clip8_1288)">
			<g clip-path="url(#clip8_1289)">
				<mask id="mask8_1291" mask-type="alpha" maskUnits="userSpaceOnUse" x="14.000000" y="14.000000" width="20.000000" height="20.000000">
					<path id="Vector" d="M34 14L34 34L14 34L14 14L34 14Z" fill="#000000" fill-opacity="1.000000" fill-rule="evenodd"/>
				</mask>
				<g mask="url(#mask8_1291)">
					<path id="Vector" d="M24.78 33.21L24.78 24.78L33.21 24.78C33.65 24.78 34 24.43 34 24C34 23.56 33.65 23.21 33.21 23.21L24.78 23.21L24.78 14.78C24.78 14.34 24.43 14 24 14C23.56 14 23.21 14.34 23.21 14.78L23.21 23.21L14.78 23.21C14.34 23.21 14 23.56 14 24C14 24.43 14.34 24.78 14.78 24.78L23.21 24.78L23.21 33.21C23.21 33.65 23.56 34 24 34C24.43 34 24.78 33.65 24.78 33.21Z" fill="#FFFFFF" fill-opacity="1.000000" fill-rule="nonzero"/>
				</g>
			</g>
		</g>
	</g>
</svg>
